<svg width="587" height="173" viewBox="0 0 587 173" fill="none" xmlns="http://www.w3.org/2000/svg">
<g clip-path="url(#clip0_3_70)">
<path d="M49.549 40.0531C53.5943 48.662 57.9595 57.9788 62.2334 66.2223H179.135C180.164 58.9835 181.123 49.0045 181.855 40.0531H49.549Z" fill="#E3A645"/>
<path d="M183.18 15.4138H41.1385C42.7383 18.5194 44.4524 22.0817 46.2808 25.918H182.426C182.838 21.7163 182.998 18.017 183.18 15.4138Z" fill="#D0665B"/>
<path d="M79.9914 93.0994C92.7901 96.3648 173.696 84.285 176.987 78.8502C177.429 77.9622 177.744 77.0168 177.924 76.0414H66.0272C71.2152 85.3126 76.129 92.1403 79.9914 93.0994Z" fill="#9ACCE5"/>
<path d="M209.349 3.4938C197.693 3.4938 193.465 16.8753 191.454 32.997H40.9328C30.4425 14.5461 18.7637 0 3.51964 0C2.63221 0.0713928 1.80422 0.47404 1.20046 1.1278C0.596712 1.78156 0.261475 2.6385 0.261475 3.52805C0.261475 4.4176 0.596712 5.27453 1.20046 5.9283C1.80422 6.58206 2.63221 6.9847 3.51964 7.0561C14.3756 7.0561 24.0889 18.3596 32.7279 32.997H31.4252C30.5378 33.0684 29.7098 33.471 29.106 34.1248C28.5023 34.7785 28.1671 35.6355 28.1671 36.525C28.1671 37.4146 28.5023 38.2715 29.106 38.9253C29.7098 39.579 30.5378 39.9817 31.4252 40.0531H36.7504C40.3614 46.6068 43.8125 53.5259 47.1264 60.2166C48.132 62.2489 49.1376 64.2584 50.1432 66.2223H48.8862C48.3986 66.183 47.9082 66.2451 47.4458 66.4046C46.9834 66.5641 46.5591 66.8176 46.1996 67.149C45.8401 67.4805 45.5532 67.8827 45.357 68.3304C45.1607 68.7781 45.0594 69.2616 45.0594 69.7503C45.0594 70.2391 45.1607 70.7225 45.357 71.1702C45.5532 71.6179 45.8401 72.0202 46.1996 72.3516C46.5591 72.683 46.9834 72.9365 47.4458 73.096C47.9082 73.2555 48.3986 73.3176 48.8862 73.2784H53.7314C63.7418 92.6198 73.3407 107.531 85.8651 107.531C107.577 107.531 152.944 101.617 176.644 93.8301C159.229 108.627 125.038 115.341 98.2752 120.593C72.358 125.594 59.8336 128.448 58.5537 135.847C58.3509 136.928 58.4022 138.042 58.7036 139.1C59.005 140.158 59.5483 141.132 60.2907 141.944C64.3131 146.511 74.6206 147.219 80.7 147.219V151.489C78.6613 152.308 76.9717 153.811 75.921 155.739C74.8702 157.668 74.524 159.901 74.9416 162.057C75.3593 164.212 76.5147 166.155 78.2097 167.552C79.9048 168.95 82.0336 169.714 84.231 169.714C86.4284 169.714 88.5573 168.95 90.2523 167.552C91.9473 166.155 93.1028 164.212 93.5204 162.057C93.938 159.901 93.5918 157.668 92.541 155.739C91.4903 153.811 89.8007 152.308 87.7621 151.489V147.128H165.582V151.489C163.544 152.308 161.854 153.811 160.803 155.739C159.753 157.668 159.406 159.901 159.824 162.057C160.242 164.212 161.397 166.155 163.092 167.552C164.787 168.95 166.916 169.714 169.113 169.714C171.311 169.714 173.44 168.95 175.135 167.552C176.83 166.155 177.985 164.212 178.403 162.057C178.82 159.901 178.474 157.668 177.423 155.739C176.373 153.811 174.683 152.308 172.644 151.489V147.128H191.065C191.553 147.167 192.043 147.105 192.506 146.945C192.968 146.786 193.392 146.532 193.752 146.201C194.111 145.869 194.398 145.467 194.595 145.019C194.791 144.572 194.892 144.088 194.892 143.6C194.892 143.111 194.791 142.627 194.595 142.18C194.398 141.732 194.111 141.33 193.752 140.998C193.392 140.667 192.968 140.413 192.506 140.254C192.043 140.094 191.553 140.032 191.065 140.072H84.0596C74.6892 140.528 66.2329 138.816 65.4787 137.126C67.0786 133.883 85.888 130.275 99.6236 127.489C137.128 120.159 188.277 110.089 194.379 77.4801C194.368 77.2899 194.368 77.0993 194.379 76.9092V76.5895C194.585 75.5847 194.768 74.4886 194.928 73.3469H198.013C198.901 73.2755 199.729 72.8728 200.332 72.2191C200.936 71.5653 201.271 70.7084 201.271 69.8188C201.271 68.9293 200.936 68.0723 200.332 67.4186C199.729 66.7648 198.901 66.3622 198.013 66.2908H195.728C196.048 62.5915 196.345 58.4583 196.619 53.8684C196.893 49.2785 197.213 44.7343 197.625 40.1672H200.093C200.58 40.2065 201.071 40.1444 201.533 39.9849C201.996 39.8254 202.42 39.5719 202.779 39.2405C203.139 38.909 203.426 38.5068 203.622 38.0591C203.818 37.6114 203.92 37.1279 203.92 36.6392C203.92 36.1504 203.818 35.667 203.622 35.2193C203.426 34.7716 203.139 34.3693 202.779 34.0379C202.42 33.7065 201.996 33.453 201.533 33.2935C201.071 33.134 200.58 33.0719 200.093 33.1111H198.402C199.979 20.9171 202.973 10.6412 209.166 10.6412C209.628 10.6412 210.086 10.5503 210.513 10.3735C210.94 10.1968 211.328 9.93779 211.655 9.61124C211.982 9.28469 212.241 8.89702 212.418 8.47036C212.595 8.0437 212.686 7.58641 212.686 7.1246C212.686 6.66279 212.595 6.2055 212.418 5.77885C212.241 5.35219 211.982 4.96452 211.655 4.63797C211.328 4.31142 210.94 4.05239 210.513 3.87566C210.086 3.69893 209.628 3.60797 209.166 3.60797L209.349 3.4938ZM61.7077 73.2784H187.98C187.82 74.1689 187.683 74.991 187.523 75.7902C187.523 76.0871 187.523 76.384 187.34 76.6808C187.073 78.5682 186.351 80.3626 185.237 81.9101C177.055 90.0623 116.559 100.475 85.8651 100.475C77.706 100.475 69.684 88.2355 61.7077 73.2784ZM189.694 53.3432C189.443 57.4992 189.145 62.0206 188.757 66.2223H58.0509C56.4968 63.208 54.9656 60.1253 53.48 57.0882C50.6232 51.3793 47.7435 45.6705 44.8181 40.0759H190.722C190.334 44.4603 190.06 48.9588 189.694 53.3432Z" fill="#434043"/>
<path d="M296.621 36.5031C296.621 38.8924 296.045 41.1324 294.893 43.2231C293.784 45.3138 292.013 46.9991 289.581 48.2791C287.192 49.5591 284.163 50.1991 280.493 50.1991H273.005V67.3511H264.045V22.6791H280.493C283.949 22.6791 286.893 23.2764 289.325 24.4711C291.757 25.6658 293.571 27.3084 294.765 29.3991C296.003 31.4898 296.621 33.8578 296.621 36.5031ZM280.109 42.9671C282.584 42.9671 284.419 42.4124 285.613 41.3031C286.808 40.1511 287.405 38.5511 287.405 36.5031C287.405 32.1511 284.973 29.9751 280.109 29.9751H273.005V42.9671H280.109ZM311.943 37.3991C313.095 35.5218 314.588 34.0498 316.423 32.9831C318.3 31.9164 320.434 31.3831 322.823 31.3831V40.7911H320.455C317.639 40.7911 315.506 41.4524 314.055 42.7751C312.647 44.0978 311.943 46.4018 311.943 49.6871V67.3511H302.983V31.8951H311.943V37.3991ZM344.602 67.9271C341.189 67.9271 338.117 67.1804 335.386 65.6871C332.655 64.1511 330.501 61.9964 328.922 59.2231C327.386 56.4498 326.618 53.2498 326.618 49.6231C326.618 45.9964 327.407 42.7964 328.986 40.0231C330.607 37.2498 332.805 35.1164 335.578 33.6231C338.351 32.0871 341.445 31.3191 344.858 31.3191C348.271 31.3191 351.365 32.0871 354.138 33.6231C356.911 35.1164 359.087 37.2498 360.666 40.0231C362.287 42.7964 363.098 45.9964 363.098 49.6231C363.098 53.2498 362.266 56.4498 360.602 59.2231C358.981 61.9964 356.762 64.1511 353.946 65.6871C351.173 67.1804 348.058 67.9271 344.602 67.9271ZM344.602 60.1191C346.223 60.1191 347.738 59.7351 349.146 58.9671C350.597 58.1564 351.749 56.9618 352.602 55.3831C353.455 53.8044 353.882 51.8844 353.882 49.6231C353.882 46.2524 352.986 43.6711 351.194 41.8791C349.445 40.0444 347.29 39.1271 344.73 39.1271C342.17 39.1271 340.015 40.0444 338.266 41.8791C336.559 43.6711 335.706 46.2524 335.706 49.6231C335.706 52.9938 336.538 55.5964 338.202 57.4311C339.909 59.2231 342.042 60.1191 344.602 60.1191ZM367.366 49.4951C367.366 45.9111 368.07 42.7324 369.478 39.9591C370.929 37.1858 372.892 35.0524 375.366 33.5591C377.841 32.0658 380.593 31.3191 383.622 31.3191C385.926 31.3191 388.124 31.8311 390.214 32.8551C392.305 33.8364 393.969 35.1591 395.206 36.8231V19.9911H404.294V67.3511H395.206V62.1031C394.097 63.8524 392.54 65.2604 390.534 66.3271C388.529 67.3938 386.204 67.9271 383.558 67.9271C380.572 67.9271 377.841 67.1591 375.366 65.6231C372.892 64.0871 370.929 61.9324 369.478 59.1591C368.07 56.3431 367.366 53.1218 367.366 49.4951ZM395.27 49.6231C395.27 47.4471 394.844 45.5911 393.99 44.0551C393.137 42.4764 391.985 41.2818 390.534 40.4711C389.084 39.6178 387.526 39.1911 385.862 39.1911C384.198 39.1911 382.662 39.5964 381.254 40.4071C379.846 41.2178 378.694 42.4124 377.798 43.9911C376.945 45.5271 376.518 47.3618 376.518 49.4951C376.518 51.6284 376.945 53.5058 377.798 55.1271C378.694 56.7058 379.846 57.9218 381.254 58.7751C382.705 59.6284 384.241 60.0551 385.862 60.0551C387.526 60.0551 389.084 59.6498 390.534 58.8391C391.985 57.9858 393.137 56.7911 393.99 55.2551C394.844 53.6764 395.27 51.7991 395.27 49.6231ZM446.517 31.8951V67.3511H437.493V62.8711C436.341 64.4071 434.827 65.6231 432.949 66.5191C431.115 67.3724 429.109 67.7991 426.933 67.7991C424.16 67.7991 421.707 67.2231 419.573 66.0711C417.44 64.8764 415.755 63.1484 414.517 60.8871C413.323 58.5831 412.725 55.8524 412.725 52.6951V31.8951H421.685V51.4151C421.685 54.2311 422.389 56.4071 423.797 57.9431C425.205 59.4364 427.125 60.1831 429.557 60.1831C432.032 60.1831 433.973 59.4364 435.381 57.9431C436.789 56.4071 437.493 54.2311 437.493 51.4151V31.8951H446.517ZM453.054 49.6231C453.054 45.9538 453.801 42.7538 455.294 40.0231C456.787 37.2498 458.857 35.1164 461.502 33.6231C464.147 32.0871 467.177 31.3191 470.59 31.3191C474.985 31.3191 478.611 32.4284 481.47 34.6471C484.371 36.8231 486.313 39.8951 487.294 43.8631H477.63C477.118 42.3271 476.243 41.1324 475.006 40.2791C473.811 39.3831 472.318 38.9351 470.526 38.9351C467.966 38.9351 465.939 39.8738 464.446 41.7511C462.953 43.5858 462.206 46.2098 462.206 49.6231C462.206 52.9938 462.953 55.6178 464.446 57.4951C465.939 59.3298 467.966 60.2471 470.526 60.2471C474.153 60.2471 476.521 58.6258 477.63 55.3831H487.294C486.313 59.2231 484.371 62.2738 481.47 64.5351C478.569 66.7964 474.942 67.9271 470.59 67.9271C467.177 67.9271 464.147 67.1804 461.502 65.6871C458.857 64.1511 456.787 62.0178 455.294 59.2871C453.801 56.5138 453.054 53.2924 453.054 49.6231ZM504.29 39.2551V56.4071C504.29 57.6018 504.567 58.4764 505.122 59.0311C505.719 59.5431 506.701 59.7991 508.066 59.7991H512.226V67.3511H506.594C499.042 67.3511 495.266 63.6818 495.266 56.3431V39.2551H491.042V31.8951H495.266V23.1271H504.29V31.8951H512.226V39.2551H504.29Z" fill="#434043"/>
<path d="M278.85 134.43C275.746 134.43 272.914 133.71 270.354 132.27C267.794 130.798 265.762 128.766 264.258 126.174C262.786 123.55 262.05 120.606 262.05 117.342C262.05 114.078 262.786 111.15 264.258 108.558C265.762 105.934 267.794 103.902 270.354 102.462C272.914 100.99 275.746 100.254 278.85 100.254C281.986 100.254 284.834 100.99 287.394 102.462C289.954 103.902 291.97 105.918 293.442 108.51C294.914 111.102 295.65 114.046 295.65 117.342C295.65 120.638 294.914 123.582 293.442 126.174C291.97 128.766 289.954 130.798 287.394 132.27C284.834 133.71 281.986 134.43 278.85 134.43ZM278.85 130.638C281.186 130.638 283.282 130.094 285.138 129.006C287.026 127.918 288.498 126.366 289.554 124.35C290.642 122.334 291.186 119.998 291.186 117.342C291.186 114.654 290.642 112.318 289.554 110.334C288.498 108.318 287.042 106.766 285.186 105.678C283.33 104.59 281.218 104.046 278.85 104.046C276.482 104.046 274.37 104.59 272.514 105.678C270.658 106.766 269.186 108.318 268.098 110.334C267.042 112.318 266.514 114.654 266.514 117.342C266.514 119.998 267.042 122.334 268.098 124.35C269.186 126.366 270.658 127.918 272.514 129.006C274.402 130.094 276.514 130.638 278.85 130.638ZM314.233 107.31C317.433 107.31 320.025 108.286 322.009 110.238C323.993 112.158 324.985 114.942 324.985 118.59V134.094H320.665V119.214C320.665 116.59 320.009 114.59 318.697 113.214C317.385 111.806 315.593 111.102 313.321 111.102C311.017 111.102 309.177 111.822 307.801 113.262C306.457 114.702 305.785 116.798 305.785 119.55V134.094H301.417V107.79H305.785V111.534C306.649 110.19 307.817 109.15 309.289 108.414C310.793 107.678 312.441 107.31 314.233 107.31ZM336.488 98.5737V134.094H332.12V98.5737H336.488ZM346.188 103.518C345.356 103.518 344.652 103.23 344.076 102.654C343.5 102.078 343.212 101.374 343.212 100.542C343.212 99.7097 343.5 99.0057 344.076 98.4297C344.652 97.8537 345.356 97.5657 346.188 97.5657C346.988 97.5657 347.66 97.8537 348.204 98.4297C348.78 99.0057 349.068 99.7097 349.068 100.542C349.068 101.374 348.78 102.078 348.204 102.654C347.66 103.23 346.988 103.518 346.188 103.518ZM348.3 107.79V134.094H343.932V107.79H348.3ZM368.561 107.31C371.761 107.31 374.353 108.286 376.337 110.238C378.321 112.158 379.313 114.942 379.313 118.59V134.094H374.993V119.214C374.993 116.59 374.337 114.59 373.025 113.214C371.713 111.806 369.921 111.102 367.649 111.102C365.345 111.102 363.505 111.822 362.129 113.262C360.785 114.702 360.113 116.798 360.113 119.55V134.094H355.745V107.79H360.113V111.534C360.977 110.19 362.145 109.15 363.617 108.414C365.121 107.678 366.769 107.31 368.561 107.31ZM410.448 119.934C410.448 120.766 410.4 121.646 410.304 122.574H389.28C389.44 125.166 390.32 127.198 391.92 128.67C393.552 130.11 395.52 130.83 397.824 130.83C399.712 130.83 401.28 130.398 402.528 129.534C403.808 128.638 404.704 127.454 405.216 125.982H409.92C409.216 128.51 407.808 130.574 405.696 132.174C403.584 133.742 400.96 134.526 397.824 134.526C395.328 134.526 393.088 133.966 391.104 132.846C389.152 131.726 387.616 130.142 386.496 128.094C385.376 126.014 384.816 123.614 384.816 120.894C384.816 118.174 385.36 115.79 386.448 113.742C387.536 111.694 389.056 110.126 391.008 109.038C392.992 107.918 395.264 107.358 397.824 107.358C400.32 107.358 402.528 107.902 404.448 108.99C406.368 110.078 407.84 111.582 408.864 113.502C409.92 115.39 410.448 117.534 410.448 119.934ZM405.936 119.022C405.936 117.358 405.568 115.934 404.832 114.75C404.096 113.534 403.088 112.622 401.808 112.014C400.56 111.374 399.168 111.054 397.632 111.054C395.424 111.054 393.536 111.758 391.968 113.166C390.432 114.574 389.552 116.526 389.328 119.022H405.936Z" fill="#E3A645"/>
<path d="M232.387 25.918V136.623" stroke="#434043" stroke-width="0.77" stroke-linecap="round" stroke-linejoin="round"/>
</g>
<defs>
<clipPath id="clip0_3_70">
<rect width="587" height="173" fill="white"/>
</clipPath>
</defs>
</svg>
