<svg width="304" height="304" viewBox="0 0 304 304" fill="none" xmlns="http://www.w3.org/2000/svg">
<circle cx="152" cy="152" r="152" fill="white"/>
<path d="M92.8482 122.177C96.5291 130.597 100.501 139.71 104.39 147.773H210.763C211.698 140.693 212.572 130.932 213.237 122.177H92.8482Z" fill="#E3A645"/>
<path d="M214.443 98.0765H85.1952C86.651 101.114 88.2107 104.599 89.8744 108.351H213.757C214.132 104.241 214.277 100.623 214.443 98.0765Z" fill="#D0665B"/>
<path d="M120.549 174.062C132.195 177.256 205.813 165.441 208.808 160.125C209.21 159.256 209.497 158.331 209.66 157.377H107.842C112.563 166.446 117.034 173.124 120.549 174.062Z" fill="#9ACCE5"/>
<path d="M238.255 86.4173C227.649 86.4173 223.802 99.506 221.972 115.275H85.0081C75.4626 97.2278 64.8358 83 50.9647 83C50.1572 83.0698 49.4038 83.4637 48.8544 84.1031C48.305 84.7426 48 85.5808 48 86.4508C48 87.3209 48.305 88.1591 48.8544 88.7986C49.4038 89.438 50.1572 89.8319 50.9647 89.9017C60.8429 89.9017 69.6813 100.958 77.5422 115.275H76.3568C75.5493 115.345 74.7959 115.739 74.2465 116.378C73.6972 117.017 73.3921 117.856 73.3921 118.726C73.3921 119.596 73.6972 120.434 74.2465 121.073C74.7959 121.713 75.5493 122.107 76.3568 122.177H81.2024C84.4881 128.587 87.6284 135.355 90.6438 141.899C91.5588 143.887 92.4739 145.852 93.3889 147.773H92.2451C91.8015 147.735 91.3552 147.796 90.9345 147.952C90.5137 148.108 90.1276 148.355 89.8005 148.68C89.4734 149.004 89.2123 149.397 89.0338 149.835C88.8552 150.273 88.763 150.746 88.763 151.224C88.763 151.702 88.8552 152.175 89.0338 152.613C89.2123 153.051 89.4734 153.444 89.8005 153.768C90.1276 154.093 90.5137 154.34 90.9345 154.496C91.3552 154.652 91.8015 154.713 92.2451 154.675H96.6539C105.763 173.593 114.497 188.178 125.893 188.178C145.65 188.178 186.93 182.393 208.496 174.777C192.649 189.25 161.538 195.817 137.186 200.954C113.603 205.846 102.206 208.638 101.042 215.874C100.857 216.932 100.904 218.021 101.178 219.056C101.453 220.091 101.947 221.043 102.622 221.838C106.283 226.305 115.662 226.997 121.193 226.997V231.174C119.338 231.976 117.801 233.445 116.845 235.332C115.889 237.218 115.574 239.402 115.954 241.511C116.334 243.619 117.385 245.519 118.927 246.886C120.47 248.253 122.407 249 124.406 249C126.406 249 128.343 248.253 129.885 246.886C131.428 245.519 132.479 243.619 132.859 241.511C133.239 239.402 132.924 237.218 131.968 235.332C131.012 233.445 129.474 231.976 127.619 231.174V226.908H198.43V231.174C196.575 231.976 195.038 233.445 194.082 235.332C193.126 237.218 192.811 239.402 193.191 241.511C193.571 243.619 194.622 245.519 196.165 246.886C197.707 248.253 199.644 249 201.643 249C203.643 249 205.58 248.253 207.122 246.886C208.665 245.519 209.716 243.619 210.096 241.511C210.476 239.402 210.161 237.218 209.205 235.332C208.249 233.445 206.711 231.976 204.856 231.174V226.908H221.618C222.062 226.946 222.508 226.886 222.929 226.73C223.35 226.574 223.736 226.326 224.063 226.002C224.39 225.677 224.651 225.284 224.83 224.846C225.008 224.408 225.1 223.935 225.1 223.457C225.1 222.979 225.008 222.506 224.83 222.068C224.651 221.631 224.39 221.237 224.063 220.913C223.736 220.589 223.35 220.341 222.929 220.185C222.508 220.029 222.062 219.968 221.618 220.006H124.25C115.724 220.453 108.029 218.778 107.343 217.125C108.799 213.953 125.914 210.424 138.413 207.7C172.539 200.53 219.081 190.68 224.634 158.785C224.624 158.599 224.624 158.412 224.634 158.226V157.914C224.821 156.931 224.987 155.859 225.133 154.742H227.94C228.748 154.672 229.501 154.278 230.05 153.639C230.6 152.999 230.905 152.161 230.905 151.291C230.905 150.421 230.6 149.583 230.05 148.943C229.501 148.304 228.748 147.91 227.94 147.84H225.861C226.152 144.222 226.422 140.179 226.672 135.69C226.921 131.2 227.212 126.755 227.587 122.288H229.833C230.276 122.327 230.723 122.266 231.143 122.11C231.564 121.954 231.95 121.706 232.277 121.382C232.604 121.058 232.865 120.664 233.044 120.226C233.223 119.788 233.315 119.315 233.315 118.837C233.315 118.359 233.223 117.886 233.044 117.449C232.865 117.011 232.604 116.617 232.277 116.293C231.95 115.969 231.564 115.721 231.143 115.565C230.723 115.409 230.276 115.348 229.833 115.387H228.294C229.729 103.459 232.453 93.4084 238.089 93.4084C238.509 93.4084 238.926 93.3194 239.314 93.1465C239.703 92.9737 240.056 92.7203 240.353 92.4009C240.651 92.0815 240.887 91.7023 241.048 91.285C241.209 90.8677 241.291 90.4204 241.291 89.9687C241.291 89.517 241.209 89.0697 241.048 88.6524C240.887 88.2351 240.651 87.8559 240.353 87.5365C240.056 87.2171 239.703 86.9637 239.314 86.7909C238.926 86.618 238.509 86.529 238.089 86.529L238.255 86.4173ZM103.912 154.675H218.811C218.665 155.546 218.54 156.35 218.395 157.132C218.395 157.422 218.395 157.712 218.228 158.003C217.985 159.849 217.329 161.604 216.315 163.118C208.87 171.091 153.823 181.277 125.893 181.277C118.469 181.277 111.17 169.305 103.912 154.675ZM220.37 135.176C220.142 139.241 219.871 143.663 219.518 147.773H100.584C99.1702 144.825 97.7769 141.81 96.4252 138.839C93.8256 133.255 91.2053 127.671 88.5434 122.199H221.306C220.953 126.487 220.703 130.887 220.37 135.176Z" fill="#434043"/>
</svg>
